<svg xmlns="http://www.w3.org/2000/svg" viewBox="0 0 24 24" fill="none">
  <path d="M12.19 5h-.38l-2.82 2.82-.15.65a6.63 6.63 0 0 1 6.32 0l-.15-.65L12.19 5z" fill="#EA4335"/>
  <path d="M5 12.19v.38l2.82 2.82.65.15a6.63 6.63 0 0 1 0-6.32l-.65-.15L5 12.19z" fill="#4285F4"/>
  <path d="M12.19 19h.38l2.82-2.82.15-.65a6.63 6.63 0 0 1-6.32 0l.15.65L12.19 19z" fill="#34A853"/>
  <path d="M19 12.19v-.38l-2.82-2.82-.65-.15a6.63 6.63 0 0 1 0 6.32l.65.15L19 12.19z" fill="#FBBC05"/>
  <circle cx="12" cy="12" r="3.5" fill="none" stroke="#EA4335" stroke-width="1"/>
</svg>
