<svg xmlns="http://www.w3.org/2000/svg" viewBox="0 0 256 256">
  <rect width="256" height="256" rx="32" fill="#333333"/>
  <path fill="#FFFFFF" d="M169.5 68.2c-7.8 0-17.3 5.2-22.9 12.1-5 6.2-9.1 15.4-7.9 24.5 8.5.7 17.2-4.4 22.6-11.4 5.1-6.7 9-15.7 8.2-25.2zM161.8 107.5c-12.7-.7-23.5 7.2-29.6 7.2-6.1 0-15.5-6.8-25.5-6.6-13.1.2-25.2 7.6-32 19.4-13.6 23.6-3.5 58.6 9.8 77.8 6.5 9.4 14.2 20 24.4 19.6 9.8-.4 13.5-6.3 25.3-6.3 11.8 0 15.2 6.3 25.5 6.1 10.5-.2 17.1-9.6 23.6-19.1 7.4-10.9 10.5-21.5 10.7-22.1-.2-.1-20.5-7.9-20.7-31.2-.2-19.5 15.9-28.8 16.6-29.3-9-13.3-23.1-14.8-28.1-15.5z"/>
</svg>
