<svg xmlns="http://www.w3.org/2000/svg" viewBox="0 0 256 256">
  <path fill="#C51A4A" d="M128 8C61.7 8 8 61.7 8 128s53.7 120 120 120 120-53.7 120-120S194.3 8 128 8zm0 220c-55.2 0-100-44.8-100-100S72.8 28 128 28s100 44.8 100 100-44.8 100-100 100z"/>
  <ellipse fill="#C51A4A" cx="88" cy="100" rx="24" ry="32"/>
  <ellipse fill="#C51A4A" cx="168" cy="100" rx="24" ry="32"/>
  <path fill="#C51A4A" d="M128 140c-30 0-56 20-56 44 0 16 16 28 56 28s56-12 56-28c0-24-26-44-56-44z"/>
  <circle fill="#73A857" cx="76" cy="60" r="12"/>
  <circle fill="#73A857" cx="180" cy="60" r="12"/>
  <ellipse fill="#73A857" cx="128" cy="52" rx="20" ry="10"/>
</svg>
