<svg xmlns="http://www.w3.org/2000/svg" viewBox="0 0 32 32">
  <path fill="#659AD2" d="M29 10.232a2.387 2.387 0 0 0-.318-1.244 2.451 2.451 0 0 0-.936-.879Q22.552 5.2 17.353 2.291a2.642 2.642 0 0 0-2.707 0q-5.194 2.9-10.4 5.818a2.392 2.392 0 0 0-1.247 2.123q0 5.821 0 11.643a2.384 2.384 0 0 0 .318 1.244 2.449 2.449 0 0 0 .936.879q5.195 2.907 10.4 5.818a2.644 2.644 0 0 0 2.707 0q5.2-2.906 10.393-5.818a2.392 2.392 0 0 0 1.247-2.123q.004-5.82 0-11.643z"/>
  <path fill="#00599C" d="M28.549 23.171a2.127 2.127 0 0 0 .147-.182 2.449 2.449 0 0 0 .3-1.158V10.169a2.434 2.434 0 0 0-.3-1.158 1.854 1.854 0 0 0-.147-.182L16 15.5z"/>
  <path fill="#004482" d="M28.549 23.171L16 16.5V15.5l12.549-6.671a1.854 1.854 0 0 1 .147.182 2.434 2.434 0 0 1 .3 1.158v11.662a2.449 2.449 0 0 1-.3 1.158 2.127 2.127 0 0 1-.147.182z"/>
  <path fill="#fff" d="M19.6 18.02a4.121 4.121 0 1 1-.027-5.181l2.373-1.39a7 7 0 1 0 .052 8.029z"/>
  <path fill="#fff" d="M24.076 13.5h-1v-1h-1v1h-1v1h1v1h1v-1h1zm4 0h-1v-1h-1v1h-1v1h1v1h1v-1h1z"/>
</svg>
