<svg xmlns="http://www.w3.org/2000/svg" viewBox="0 0 32 32">
  <ellipse cx="16" cy="16" rx="14" ry="7.365" fill="#8892BF"/>
  <ellipse cx="16" cy="16" rx="12.5" ry="5.865" fill="#6773a0"/>
  <path fill="#fff" d="M11.127 10.579h2.6l-.541 2.657h1.4a2.448 2.448 0 0 1 1.768.535 1.889 1.889 0 0 1 .3 1.639l-.723 3.542H13.3l.677-3.317c.061-.3.061-.511-.045-.635a.7.7 0 0 0-.556-.182h-1.2l-.9 4.134H8.645z"/>
  <path fill="#fff" d="M6.006 13.236h2.6l-.255 1.239H9.769a2.448 2.448 0 0 1 1.768.535 1.889 1.889 0 0 1 .3 1.639l-.315 1.543a2.775 2.775 0 0 1-1.043 1.8 3.291 3.291 0 0 1-2.01.558H6.2l-.4 1.949H3.161zm2.073 2.5l-.476 2.327h1.123a.8.8 0 0 0 .6-.233.958.958 0 0 0 .259-.547l.209-1a.591.591 0 0 0-.074-.482.7.7 0 0 0-.556-.182h-1.2z"/>
  <path fill="#fff" d="M17.934 10.579h2.6l-.541 2.657h1.4a2.448 2.448 0 0 1 1.768.535 1.889 1.889 0 0 1 .3 1.639l-.723 3.542h-2.633l.677-3.317c.061-.3.061-.511-.045-.635a.7.7 0 0 0-.556-.182h-1.2l-.9 4.134h-2.633z"/>
</svg>
